<?xml version="1.0" encoding="UTF-8"?>
<svg width="700pt" height="700pt" version="1.0" viewBox="0 0 700 700" xmlns="http://www.w3.org/2000/svg">
<g transform="translate(0 700) scale(.1 -.1)">
<path d="m3308 6555c-2-1-37-5-78-9-101-8-133-12-355-50-58-10-244-62-347-96-442-147-836-391-1173-725-247-244-410-463-566-760-149-284-269-643-305-910-3-27-8-52-9-55-2-3-6-37-10-75-4-39-9-81-11-95-9-45-11-443-3-525 15-155 20-191 40-300 86-471 274-903 559-1284 111-149 146-188 304-346 300-298 642-521 1043-678 88-35 298-102 345-111 13-2 41-9 63-15 46-12 180-38 240-45 22-3 59-8 82-11 121-17 238-22 428-19 116 2 221 5 235 8s48 8 75 10c101 9 330 54 460 90 485 136 915 382 1287 735 255 243 452 509 618 836 160 315 242 580 304 985 21 135 28 506 13 665-62 638-319 1245-732 1725-64 75-284 290-365 357-99 82-252 192-328 237-30 17-75 43-100 59-173 103-454 222-662 282-132 38-374 89-475 100-33 4-78 9-100 11-45 6-472 14-477 9zm462-429c19-3 55-8 80-11 89-12 117-17 225-41 760-168 1420-679 1772-1369 153-299 254-648 281-965 13-162 7-480-12-590-3-14-7-46-11-72-3-26-8-53-10-60s-6-24-9-38c-63-374-275-821-544-1148-251-307-524-522-882-698-197-97-170-86-346-143-142-47-340-92-464-106-30-4-68-9-85-11-55-9-419-12-490-4-38 5-97 11-130 15-33 3-67 8-75 10-8 3-31 7-50 10-216 36-499 132-719 246-155 80-221 120-361 222-111 81-290 235-290 250 0 2 57 5 128 5 197-1 178-6 186 53l7 51 43-40c24-22 58-48 76-57 115-59 278-51 391 21 97 61 184 203 224 364 3 11 15 88 21 130 11 80 5 292-10 380-31 172-76 276-162 370-135 146-357 168-511 50l-53-40v290 290h-65c-235 2-315 1-322-3-4-3-8-410-7-905 0-633-3-899-10-895-17 8-137 150-213 253-268 363-433 781-494 1250-17 126-17 510 0 625 7 50 15 99 16 110 14 95 58 279 92 380 178 545 504 993 973 1337 209 153 502 300 755 379 84 26 303 77 361 84 27 4 56 8 64 10s56 7 105 11c50 3 92 8 94 10 5 4 391-4 431-10zm-1530-3495c24-17 84-121 75-130-2-2 0-12 6-23 16-30 19-228 4-306-33-174-129-255-225-189-72 48-112 184-106 357 6 156 41 247 114 296 37 26 92 23 132-5z"/>
<path d="m2257 5404c-1-2-25-5-52-9-205-24-298-136-312-380-3-55-6-101-7-102s-66-3-144-4l-143-1 1-174 2-173h101 145l42-1v-510-510l198 2 197 3v508 507l55 1h183l127-1v175 175h-183-183l2 43c3 72 4 75 18 90 11 11 49 14 168 15 84 0 159 1 166 1 9 1 12 43 12 174v174l-195-1c-108 0-197-1-198-2z"/>
<path d="m4235 5401c-3-2-5-422-5-933v-928l198 2 197 3 2 258c1 255 2 259 24 278 12 11 27 18 32 16 4-1 27-38 51-82 23-44 58-109 78-145 19-36 68-125 108-197l72-133h220c177 0 219 3 215 13-3 7-59 104-126 216s-121 205-121 207c0 3-9 17-19 32s-65 105-121 201l-102 173 50 52c27 28 62 65 78 82 48 51 317 337 342 362 12 12 22 25 22 27 0 3-111 5-247 4h-248l-135-160c-74-88-144-168-155-179-20-19-20-19-18 409l1 428-194-1c-107 0-197-2-199-5z"/>
<path d="m3584 4924c-63-17-131-55-170-94-16-16-32-30-35-30-4 0-10 25-14 55l-6 55h-180c-136 0-179-3-180-12-1-17-1-1295 0-1330l1-28h195c149 0 195 3 196 13 0 6 2 188 3 402 3 326 6 398 19 440 41 126 173 190 338 164 71-11 126-41 189-100 29-27 52-49 53-49s2 99 1 220c0 178-3 223-15 234-8 7-45 26-84 41-56 23-88 29-165 31-57 1-115-4-146-12z"/>
<path d="m4228 3490-22-6-1-927c0-510 2-927 5-928s81-2 173-3c159-1 191 2 187 18-1 3 1 24 5 47l7 40 45-41c86-80 205-110 335-87 97 17 206 100 267 202 32 52 74 162 85 217 22 121 26 157 26 278 1 134-7 215-31 313-51 202-164 347-307 392-133 42-279 14-374-74l-28-25v292 292l-107 1c-60 0-138 1-175 2s-77 0-90-3zm585-839c9-1 33-17 52-37 51-52 76-142 79-279 5-219-63-375-164-375-106 0-170 116-176 320-5 188 38 319 118 359 22 10 47 18 56 16s25-4 35-4z"/>
<path d="m3244 3015c-51-15-85-34-107-58-19-22-19-22-33 13-11 24-12 25-142 25l-132 1 2-685 3-685h163c89 1 164 3 167 6 3 2 5 226 5 496 1 479 4 536 32 553 17 11 51-5 57-27 2-10 7-246 10-523l6-505h158c88-1 163 1 168 4 4 3 9 233 11 510 2 278 7 512 11 522 10 19 40 29 56 19 27-17 31-93 31-562 0-381 3-488 13-491s253-2 310 1c18 1 18 22 14 524-3 287-7 538-11 557-39 229-118 313-296 313-76 0-138-24-186-72l-31-31-31 30c-67 64-165 90-248 65z"/>
</g>
</svg>
